<svg width="56" height="40" viewBox="0 0 56 40" fill="none" xmlns="http://www.w3.org/2000/svg">
<rect width="56" height="40" rx="8" fill="white"/>
<path d="M34.125 8.99438H21.875V31.0094H34.125V8.99438Z" fill="#FF5F00"/>
<path d="M22.6528 20C22.6528 15.5356 24.745 11.5572 28 8.99444C25.62 7.12 22.6139 6 19.3472 6C11.6161 6 5.34723 12.2689 5.34723 20C5.34723 27.7311 11.6161 34 19.3472 34C22.6139 34 25.6161 32.88 28 31.0056C24.745 28.4428 22.6528 24.4644 22.6528 20Z" fill="#EB001B"/>
<path d="M50.6528 20C50.6528 27.7311 44.3839 34 36.6528 34C33.3861 34 30.3839 32.88 28 31.0056C31.255 28.4428 33.3472 24.4644 33.3472 20C33.3472 15.5356 31.255 11.5572 28 8.99444C30.38 7.12 33.3861 6 36.6528 6C44.3839 6 50.6528 12.2689 50.6528 20Z" fill="#F79E1B"/>
<path d="M49.315 28.676V28.2249H49.4978V28.1316H49.035V28.2249H49.2178V28.676H49.315ZM50.2134 28.676V28.1316H50.0734L49.91 28.5049L49.7467 28.1316H49.6028V28.676H49.7039V28.2677L49.8556 28.6216H49.9606L50.1123 28.2677V28.6799H50.2134V28.676Z" fill="#F79E1B"/>
</svg>
