<svg width="32" height="32" viewBox="0 0 32 32" fill="none" xmlns="http://www.w3.org/2000/svg">
<g id="twemoji:flag-egypt">
<path id="Vector" d="M32 23.9999C32 24.9429 31.6254 25.8473 30.9586 26.514C30.2918 27.1808 29.3874 27.5554 28.4444 27.5554H3.55556C2.61256 27.5554 1.70819 27.1808 1.0414 26.514C0.374602 25.8473 0 24.9429 0 23.9999V7.99989C0 7.0569 0.374602 6.15253 1.0414 5.48573C1.70819 4.81894 2.61256 4.44434 3.55556 4.44434H28.4444C29.3874 4.44434 30.2918 4.81894 30.9586 5.48573C31.6254 6.15253 32 7.0569 32 7.99989V23.9999Z" fill="#141414"/>
<path id="Vector_2" d="M0 11.5557H32V20.4446H0V11.5557Z" fill="#F0F0F0"/>
<path id="Vector_3" d="M28.4444 4.44434H3.55556C2.61256 4.44434 1.70819 4.81894 1.0414 5.48573C0.374602 6.15253 0 7.0569 0 7.99989L0 11.5554H32V7.99989C32 7.0569 31.6254 6.15253 30.9586 5.48573C30.2918 4.81894 29.3874 4.44434 28.4444 4.44434Z" fill="#CE1225"/>
<path id="Vector_4" d="M13.1111 19.1663C13.1111 19.1663 13.1253 19.3886 13.3191 19.4997C13.3191 19.4997 13.264 19.6668 13.472 19.7637C13.68 19.8606 14.4302 20.0135 15.736 20.0135C17.0418 20.0135 17.7778 19.8748 17.9724 19.777C18.1671 19.6801 18.1804 19.4579 18.1804 19.4579C18.1804 19.4579 18.3884 19.3468 18.3751 19.2081C18.3609 19.0695 18.0835 18.9166 18.0835 18.9166C18.0835 18.9166 18.0142 18.7361 17.8195 18.6668C17.6249 18.5975 17 18.9726 15.8053 18.9166C14.6106 18.8615 13.9306 18.6801 13.7084 18.6943C13.4862 18.7086 13.3893 18.9308 13.3893 18.9308C13.3893 18.9308 13.1386 19.0419 13.1111 19.1663Z" fill="#BF9300"/>
<path id="Vector_5" d="M13.264 19.1531C13.2524 19.2357 13.4311 19.4171 13.4311 19.4171C13.4311 19.4171 13.4311 19.6251 13.6115 19.6811C13.792 19.7371 14.528 19.8757 15.7226 19.8615C16.9173 19.8473 17.7644 19.7779 17.8613 19.6944C17.9582 19.6108 18.0417 19.4304 18.0417 19.4304C18.0417 19.4304 18.2364 19.2917 18.2222 19.1806C18.208 19.0695 17.9306 19.0002 17.9306 19.0002C17.9306 19.0002 17.8524 18.8331 17.76 18.7637C17.6675 18.6944 17.0702 19.0411 15.792 19.0411C14.5413 19.0411 13.8195 18.7353 13.6951 18.7495C13.5697 18.7637 13.4871 18.9993 13.4871 18.9993C13.4871 18.9993 13.2782 19.0562 13.264 19.1531Z" fill="#EEEEEE"/>
<path id="Vector_6" d="M18.5414 13.7635C18.5414 13.7635 18.5138 13.111 17.9165 13.1937C17.3191 13.2773 17.2774 13.5688 16.6382 13.6381L16.5067 13.6506C16.4001 13.3616 16.3412 13.0572 16.3325 12.7493C16.3325 12.3324 16.4578 12.1519 16.0267 11.9439C15.5965 11.7359 15.5129 11.9297 15.5129 11.9297C15.5129 11.9297 15.1796 11.7626 15.0267 11.8879C14.8738 12.0133 14.9574 12.3324 15.0267 12.2355C15.096 12.1386 15.3742 12.4159 15.3742 12.4159C15.4685 12.8773 15.2009 13.3768 15.0178 13.655C14.9547 13.6488 14.904 13.6461 14.8329 13.6381C14.1938 13.5688 14.152 13.2773 13.5547 13.1937C12.9574 13.1101 12.9298 13.7635 12.9298 13.7635L12.6934 18.8053L13.1796 18.4301L13.1822 18.3706L14.1938 17.4719L14.3627 17.303L13.944 18.527C13.944 18.527 13.3049 18.4853 13.4854 18.999C13.4854 18.999 13.5822 18.7075 13.7494 18.7626C13.9165 18.8177 14.4018 18.943 14.4018 18.943L14.5689 19.207L14.7769 19.0124L15.4294 18.9848C15.4294 18.9848 15.6374 19.0399 15.624 19.2213C15.6622 19.1433 15.6738 19.0549 15.6569 18.9697L15.8534 18.9564C15.8323 19.0458 15.8429 19.1397 15.8836 19.2221C15.8694 19.0417 16.0782 18.9857 16.0782 18.9857L16.7307 19.0133L16.9396 19.2079L17.1067 18.9439C17.1067 18.9439 17.592 18.8186 17.7582 18.7635C17.9245 18.7084 18.0222 18.9999 18.0222 18.9999C18.2027 18.4861 17.5636 18.5279 17.5636 18.5279L17.1645 17.3608L17.2765 17.4728L18.288 18.3715L18.2907 18.431L18.7769 18.8061L18.5414 13.7635ZM15.7796 16.8195C14.7778 16.2008 14.6951 14.639 14.6951 14.639C14.6951 14.639 15.3147 14.607 15.7645 14.2915C16.1698 14.6515 16.8614 14.6106 16.8614 14.6106C16.8614 14.6106 16.8142 16.1786 15.7796 16.8195ZM18.0694 13.5697L17.2222 14.375L17.08 14.4319C16.9342 14.4373 16.2249 14.439 15.7778 14.0417C15.2222 14.431 14.4587 14.4586 14.4587 14.4586L14.3405 14.4115L13.4027 13.5697L13.1565 13.671C13.1671 13.5706 13.2222 13.3448 13.528 13.3893C14.0294 13.4613 14.2365 13.7368 14.7645 13.7919L14.9138 13.807L14.8614 13.8746C14.9431 13.8746 15.064 13.8506 15.1529 13.831L15.2534 13.8408L15.208 13.999C15.2791 13.9777 15.3822 13.9164 15.4667 13.8621L15.6978 13.8844L15.7502 13.9573L15.9262 13.8693L16.0445 13.8577C16.1467 13.9173 16.2925 13.9706 16.2925 13.9706L16.32 13.8319C16.4454 13.9155 16.6534 13.9155 16.6534 13.9155C16.6294 13.8959 16.6054 13.8461 16.5805 13.8035L16.7085 13.7901C17.2365 13.735 17.4427 13.4595 17.9449 13.3875C18.2507 13.3439 18.3058 13.5688 18.3165 13.6693L18.0694 13.5697Z" fill="#BF9300"/>
<path id="Vector_7" d="M15.4444 16.7919L14.944 18.6942L14.1111 18.5279L14.9724 16.0835L15.4444 16.7919ZM16.0658 16.7919L16.5653 18.6942L17.3991 18.5279L16.5378 16.0835L16.0658 16.7919Z" fill="#EEEEEE"/>
<path id="Vector_8" d="M14.9031 14.7918C14.9031 14.7918 14.9724 15.5971 15.3333 16.222V14.6113C15.3333 14.6113 15.0969 14.75 14.9031 14.7918ZM16.6391 14.8193C16.6391 14.8193 16.5697 15.6247 16.2089 16.2496V14.6389C16.208 14.6389 16.4444 14.7776 16.6391 14.8193Z" fill="#BF9300"/>
<path id="Vector_9" d="M15.0693 12.0691C15.0693 12.0691 15.1662 11.9723 15.4444 12.166C15.6249 12.2923 15.7849 12.3883 15.7849 12.3883C15.7849 12.3883 15.8987 12.2683 16.0658 12.2958C16.2329 12.3234 16.1396 12.5554 16.1671 13.0407C16.1947 13.5269 16.3893 13.7349 16.3893 13.7349L16.1529 13.5963L16.1671 13.7491L15.9031 13.6238L15.7778 13.8043L15.6524 13.6096L15.4498 13.7331L15.3884 13.5678L15.152 13.6931C15.152 13.6931 15.4996 13.2629 15.5271 12.79C15.5351 12.6487 15.4996 12.3314 15.4996 12.3314C15.4996 12.3314 15.2782 12.0549 15.0693 12.0691Z" fill="#EEEEEE"/>
<path id="Vector_10" d="M13.8195 19.2498C13.6604 19.3449 13.7227 19.4027 13.8195 19.4444C13.9164 19.4862 14.4995 19.5564 15.6809 19.5831C16.8889 19.6107 17.6391 19.472 17.736 19.416C17.8329 19.3609 17.8471 19.2631 17.6809 19.2356C17.5138 19.208 16.6809 19.3467 15.6667 19.3467C14.4169 19.3476 13.8889 19.208 13.8195 19.2498Z" fill="#BF9300"/>
</g>
</svg>
