<svg width="40" height="40" viewBox="0 0 40 40" fill="none" xmlns="http://www.w3.org/2000/svg">
<g id="facebook">
<path id="Vector" d="M32.5 0C34.566 0 36.3325 0.733507 37.7995 2.20052C39.2665 3.66753 40 5.43403 40 7.5V32.5C40 34.566 39.2665 36.3325 37.7995 37.7995C36.3325 39.2665 34.566 40 32.5 40H27.6042V24.5052H32.7865L33.5677 18.4635H27.6042V14.6094C27.6042 13.6372 27.8082 12.908 28.2161 12.4219C28.6241 11.9358 29.4184 11.6927 30.599 11.6927L33.776 11.6667V6.27604C32.6823 6.11979 31.1372 6.04167 29.1406 6.04167C26.7795 6.04167 24.8915 6.73611 23.4766 8.125C22.0616 9.51389 21.3542 11.4757 21.3542 14.0104V18.4635H16.1458V24.5052H21.3542V40H7.5C5.43403 40 3.66753 39.2665 2.20052 37.7995C0.733507 36.3325 0 34.566 0 32.5V7.5C0 5.43403 0.733507 3.66753 2.20052 2.20052C3.66753 0.733507 5.43403 0 7.5 0H32.5Z" fill="#1877F2"/>
</g>
</svg>
