<svg width="56" height="40" viewBox="0 0 56 40" fill="none" xmlns="http://www.w3.org/2000/svg">
<rect width="56" height="40" rx="8" fill="#F5F5F5"/>
<path fill-rule="evenodd" clip-rule="evenodd" d="M34.7822 15C34.7651 15.1193 34.7451 15.2412 34.723 15.3664C33.9574 19.5986 31.3379 21.0607 27.9926 21.0607H26.2893C25.8801 21.0607 25.5353 21.3804 25.4717 21.815L24.3526 29.4576C24.3112 29.743 24.5154 30 24.7827 30H27.8038C28.1615 30 28.4654 29.7202 28.5217 29.3404L28.5514 29.1752L29.1202 25.2888L29.1568 25.0757C29.2124 24.6945 29.5171 24.4145 29.8747 24.4145H30.3265C33.2535 24.4145 35.5449 23.1352 36.2146 19.4327C36.4943 17.8861 36.3495 16.5946 35.6092 15.6863C35.3852 15.4125 35.1073 15.1852 34.7822 15Z" fill="#298FC2"/>
<path fill-rule="evenodd" clip-rule="evenodd" d="M33.8775 14.6302C33.7636 14.5944 33.6462 14.5621 33.5257 14.5329C33.4046 14.5044 33.2806 14.4792 33.1529 14.4571C32.7059 14.3794 32.2161 14.3425 31.6916 14.3425H27.2632C27.1541 14.3425 27.0505 14.369 26.9578 14.4169C26.7535 14.5226 26.6019 14.7306 26.5651 14.9852L25.6229 21.4041L25.5959 21.5912C25.6579 21.1687 25.9934 20.8578 26.3916 20.8578H28.0493C31.3049 20.8578 33.8541 19.4354 34.5991 15.3208C34.6214 15.199 34.6401 15.0805 34.6568 14.9645C34.4684 14.8569 34.2642 14.7649 34.0444 14.6865C33.9901 14.667 33.934 14.6484 33.8775 14.6302Z" fill="#22284F"/>
<path fill-rule="evenodd" clip-rule="evenodd" d="M26.547 15.0124C26.5875 14.747 26.7548 14.5301 26.9802 14.4208C27.0831 14.3707 27.1966 14.343 27.3171 14.343H32.2017C32.7803 14.343 33.3205 14.3816 33.8135 14.4626C33.9544 14.4855 34.0912 14.512 34.2248 14.5417C34.3577 14.572 34.4872 14.6058 34.6128 14.6429C34.6752 14.6618 34.737 14.6815 34.7974 14.701C35.0399 14.7827 35.2653 14.8794 35.4732 14.9908C35.7177 13.4056 35.4711 12.3262 34.6281 11.3489C33.6985 10.2727 32.021 9.81226 29.8743 9.81226H23.6421C23.2036 9.81226 22.8296 10.1363 22.7618 10.5775L20.1661 27.3046C20.1149 27.6355 20.3659 27.934 20.6942 27.934H24.5417L26.547 15.0124Z" fill="#28356A"/>
</svg>
