<svg width="16" height="16" viewBox="0 0 16 16" fill="none" xmlns="http://www.w3.org/2000/svg">
<g id="solar:clock-circle-outline">
<path id="Vector" fill-rule="evenodd" clip-rule="evenodd" d="M8.00001 1.83337C6.36451 1.83337 4.79599 2.48307 3.63952 3.63955C2.48304 4.79602 1.83334 6.36454 1.83334 8.00004C1.83334 9.63554 2.48304 11.2041 3.63952 12.3605C4.79599 13.517 6.36451 14.1667 8.00001 14.1667C9.63551 14.1667 11.204 13.517 12.3605 12.3605C13.517 11.2041 14.1667 9.63554 14.1667 8.00004C14.1667 6.36454 13.517 4.79602 12.3605 3.63955C11.204 2.48307 9.63551 1.83337 8.00001 1.83337ZM0.833344 8.00004C0.833344 4.04204 4.04201 0.833374 8.00001 0.833374C11.958 0.833374 15.1667 4.04204 15.1667 8.00004C15.1667 11.958 11.958 15.1667 8.00001 15.1667C4.04201 15.1667 0.833344 11.958 0.833344 8.00004ZM8.00001 4.83337C8.13262 4.83337 8.2598 4.88605 8.35356 4.97982C8.44733 5.07359 8.50001 5.20077 8.50001 5.33337V7.79337L10.02 9.31337C10.0691 9.35915 10.1085 9.41435 10.1359 9.47568C10.1632 9.53701 10.1779 9.60322 10.1791 9.67036C10.1803 9.73749 10.1679 9.80418 10.1428 9.86644C10.1176 9.9287 10.0802 9.98525 10.0327 10.0327C9.98522 10.0802 9.92867 10.1176 9.86641 10.1428C9.80415 10.1679 9.73746 10.1803 9.67033 10.1791C9.60319 10.1779 9.53698 10.1632 9.47565 10.1359C9.41432 10.1086 9.35912 10.0692 9.31334 10.02L7.64668 8.35337C7.55288 8.2597 7.50013 8.1326 7.50001 8.00004V5.33337C7.50001 5.20077 7.55269 5.07359 7.64646 4.97982C7.74023 4.88605 7.8674 4.83337 8.00001 4.83337Z" fill="#797979"/>
</g>
</svg>
