<svg width="16" height="16" viewBox="0 0 16 16" fill="none" xmlns="http://www.w3.org/2000/svg">
<g id="solar:sort-horizontal-outline">
<path id="Vector" fill-rule="evenodd" clip-rule="evenodd" d="M7.10867 2.31863C7.2009 2.41379 7.25158 2.54167 7.24958 2.67417C7.24758 2.80668 7.19306 2.93297 7.098 3.0253L5.234 4.8333H12C12.1326 4.8333 12.2598 4.88598 12.3536 4.97975C12.4473 5.07351 12.5 5.20069 12.5 5.3333C12.5 5.46591 12.4473 5.59308 12.3536 5.68685C12.2598 5.78062 12.1326 5.8333 12 5.8333H5.23333L7.098 7.6413C7.14755 7.6864 7.18753 7.741 7.21557 7.80186C7.2436 7.86271 7.25912 7.92858 7.2612 7.99555C7.26328 8.06252 7.25188 8.12923 7.22767 8.19171C7.20347 8.25418 7.16695 8.31116 7.12029 8.35925C7.07363 8.40733 7.01779 8.44555 6.95607 8.47164C6.89435 8.49772 6.82802 8.51113 6.76102 8.51107C6.69401 8.51101 6.62771 8.49749 6.56603 8.4713C6.50436 8.44512 6.44858 8.4068 6.402 8.35863L3.652 5.69197C3.60402 5.64536 3.56588 5.58961 3.53983 5.528C3.51379 5.46639 3.50036 5.40019 3.50036 5.3333C3.50036 5.26641 3.51379 5.20021 3.53983 5.1386C3.56588 5.07699 3.60402 5.02123 3.652 4.97463L6.402 2.30797C6.49716 2.21573 6.62504 2.16505 6.75754 2.16705C6.89005 2.16905 7.01634 2.22357 7.10867 2.31863ZM8.89133 7.65197C8.98366 7.5569 9.10995 7.50238 9.24246 7.50038C9.37496 7.49838 9.50284 7.54907 9.598 7.6413L12.348 10.308C12.396 10.3546 12.4341 10.4103 12.4602 10.4719C12.4862 10.5335 12.4996 10.5997 12.4996 10.6666C12.4996 10.7335 12.4862 10.7997 12.4602 10.8613C12.4341 10.9229 12.396 10.9787 12.348 11.0253L9.598 13.692C9.55142 13.7401 9.49564 13.7784 9.43397 13.8046C9.37229 13.8308 9.30599 13.8443 9.23898 13.8444C9.17198 13.8445 9.10565 13.831 9.04393 13.805C8.98221 13.7789 8.92637 13.7407 8.87971 13.6926C8.83305 13.6445 8.79653 13.5875 8.77233 13.525C8.74812 13.4626 8.73672 13.3959 8.7388 13.3289C8.74088 13.2619 8.7564 13.196 8.78443 13.1352C8.81247 13.0743 8.85245 13.0197 8.902 12.9746L10.766 11.1666H4C3.86739 11.1666 3.74021 11.114 3.64645 11.0202C3.55268 10.9264 3.5 10.7992 3.5 10.6666C3.5 10.534 3.55268 10.4068 3.64645 10.3131C3.74021 10.2193 3.86739 10.1666 4 10.1666H10.7667L8.902 8.35863C8.80694 8.2663 8.75242 8.14001 8.75042 8.00751C8.74842 7.875 8.7991 7.74712 8.89133 7.65197Z" fill="#3E3E3E"/>
</g>
</svg>
