<svg width="24" height="24" viewBox="0 0 24 24" fill="none" xmlns="http://www.w3.org/2000/svg">
<path opacity="0.5" d="M12 23C18.075 23 23 18.075 23 12C23 5.925 18.075 1 12 1C5.925 1 1 5.925 1 12C1 13.76 1.413 15.423 2.148 16.898C2.343 17.29 2.408 17.738 2.295 18.161L1.64 20.609C1.57523 20.8513 1.57532 21.1064 1.64027 21.3486C1.70522 21.5909 1.83274 21.8118 2.01004 21.9892C2.18734 22.1666 2.40817 22.2942 2.65038 22.3593C2.89259 22.4244 3.14767 22.4246 3.39 22.36L5.84 21.705C6.26453 21.5987 6.71327 21.651 7.102 21.852C8.62351 22.6094 10.3004 23.0025 12 23Z" fill="white"/>
<path d="M10.9 11.9999C10.9 12.2916 11.0159 12.5714 11.2222 12.7777C11.4285 12.984 11.7083 13.0999 12 13.0999C12.2917 13.0999 12.5715 12.984 12.7778 12.7777C12.9841 12.5714 13.1 12.2916 13.1 11.9999C13.1 11.7082 12.9841 11.4284 12.7778 11.2221C12.5715 11.0158 12.2917 10.8999 12 10.8999C11.7083 10.8999 11.4285 11.0158 11.2222 11.2221C11.0159 11.4284 10.9 11.7082 10.9 11.9999ZM6.5 11.9999C6.5 12.1444 6.52845 12.2874 6.58373 12.4209C6.63901 12.5543 6.72004 12.6756 6.82218 12.7777C6.92433 12.8799 7.04559 12.9609 7.17905 13.0162C7.31251 13.0715 7.45555 13.0999 7.6 13.0999C7.74445 13.0999 7.88749 13.0715 8.02095 13.0162C8.15441 12.9609 8.27567 12.8799 8.37782 12.7777C8.47996 12.6756 8.56099 12.5543 8.61627 12.4209C8.67155 12.2874 8.7 12.1444 8.7 11.9999C8.7 11.7082 8.58411 11.4284 8.37782 11.2221C8.17153 11.0158 7.89174 10.8999 7.6 10.8999C7.30826 10.8999 7.02847 11.0158 6.82218 11.2221C6.61589 11.4284 6.5 11.7082 6.5 11.9999ZM15.3 11.9999C15.3 12.1444 15.3285 12.2874 15.3837 12.4209C15.439 12.5543 15.52 12.6756 15.6222 12.7777C15.7243 12.8799 15.8456 12.9609 15.979 13.0162C16.1125 13.0715 16.2555 13.0999 16.4 13.0999C16.5445 13.0999 16.6875 13.0715 16.821 13.0162C16.9544 12.9609 17.0757 12.8799 17.1778 12.7777C17.28 12.6756 17.361 12.5543 17.4163 12.4209C17.4715 12.2874 17.5 12.1444 17.5 11.9999C17.5 11.7082 17.3841 11.4284 17.1778 11.2221C16.9715 11.0158 16.6917 10.8999 16.4 10.8999C16.1083 10.8999 15.8285 11.0158 15.6222 11.2221C15.4159 11.4284 15.3 11.7082 15.3 11.9999Z" fill="white"/>
</svg>
