<svg width="40" height="40" viewBox="0 0 40 40" fill="none" xmlns="http://www.w3.org/2000/svg">
<path d="M14.306 6.816C16.84 2.272 18.106 0 20 0C21.894 0 23.16 2.272 25.694 6.816L26.35 7.992C27.07 9.284 27.43 9.93 27.99 10.356C28.55 10.782 29.25 10.94 30.65 11.256L31.922 11.544C36.842 12.658 39.3 13.214 39.886 15.096C40.47 16.976 38.794 18.938 35.44 22.86L34.572 23.874C33.62 24.988 33.142 25.546 32.928 26.234C32.714 26.924 32.786 27.668 32.93 29.154L33.062 30.508C33.568 35.742 33.822 38.358 32.29 39.52C30.758 40.684 28.454 39.622 23.85 37.502L22.656 36.954C21.348 36.35 20.694 36.05 20 36.05C19.306 36.05 18.652 36.35 17.342 36.954L16.152 37.502C11.546 39.622 9.24198 40.682 7.71198 39.522C6.17798 38.358 6.43198 35.742 6.93798 30.508L7.06998 29.156C7.21398 27.668 7.28598 26.924 7.06998 26.236C6.85798 25.546 6.37998 24.988 5.42798 23.876L4.55998 22.86C1.20598 18.94 -0.470018 16.978 0.113982 15.096C0.699982 13.214 3.15998 12.656 8.07998 11.544L9.35198 11.256C10.75 10.94 11.448 10.782 12.01 10.356C12.57 9.93 12.93 9.284 13.65 7.992L14.306 6.816Z" fill="#C5C5C5"/>
</svg>
