<svg width="32" height="32" viewBox="0 0 32 32" fill="none" xmlns="http://www.w3.org/2000/svg">
<g id="twemoji:flag-germany">
<path id="Vector" d="M0 23.9999C0 24.9429 0.374602 25.8473 1.0414 26.514C1.70819 27.1808 2.61256 27.5554 3.55556 27.5554H28.4444C29.3874 27.5554 30.2918 27.1808 30.9586 26.514C31.6254 25.8473 32 24.9429 32 23.9999V20.4443H0V23.9999Z" fill="#FFCD05"/>
<path id="Vector_2" d="M0 12.4443H32V20.4443H0V12.4443Z" fill="#CE1225"/>
<path id="Vector_3" d="M28.4444 4.44434H3.55556C2.61256 4.44434 1.70819 4.81894 1.0414 5.48573C0.374602 6.15253 0 7.0569 0 7.99989L0 12.4443H32V7.99989C32 7.0569 31.6254 6.15253 30.9586 5.48573C30.2918 4.81894 29.3874 4.44434 28.4444 4.44434Z" fill="#141414"/>
</g>
</svg>
