<svg width="32" height="32" viewBox="0 0 32 32" fill="none" xmlns="http://www.w3.org/2000/svg">
<g id="twemoji:flag-us-outlying-islands">
<path id="Vector" d="M31.5067 6.22211C30.8907 5.16345 29.7573 4.44434 28.4444 4.44434H16V6.22211H31.5067ZM0 22.2221H32V23.9999H0V22.2221ZM16 15.111H32V16.8888H16V15.111ZM16 11.5554H32V13.3332H16V11.5554ZM0 18.6666H32V20.4443H0V18.6666ZM3.55556 27.5554H28.4444C29.7573 27.5554 30.8907 26.8363 31.5067 25.7777H0.493333C1.10933 26.8363 2.24267 27.5554 3.55556 27.5554ZM16 7.99989H32V9.77767H16V7.99989Z" fill="#B22334"/>
<path id="Vector_2" d="M0.0604444 24.6035C0.0755556 24.6862 0.0924444 24.7688 0.112889 24.8497C0.136 24.9395 0.164444 25.0257 0.194667 25.1128C0.273778 25.3431 0.369778 25.5653 0.490667 25.7733L0.493333 25.7777H31.5067L31.5084 25.7742C31.6278 25.5646 31.7266 25.344 31.8036 25.1155C31.8621 24.9487 31.9073 24.7775 31.9387 24.6035C31.9751 24.4079 32 24.2071 32 23.9999H0C0 24.2071 0.0248889 24.4071 0.0604444 24.6035ZM0 20.4444H32V22.2222H0V20.4444ZM0 16.8888V18.6666H32V16.8888H16H0ZM16 13.3333H32V15.1111H16V13.3333ZM16 9.77772H32V11.5555H16V9.77772ZM0.113778 7.15017C0.136 7.0595 0.167111 6.97328 0.195556 6.88617C0.164687 6.97301 0.137405 7.06108 0.113778 7.15017ZM16 7.99995H32C32 7.79283 31.9751 7.59195 31.9387 7.3955C31.9075 7.22137 31.862 7.05012 31.8027 6.8835C31.7256 6.654 31.6265 6.43252 31.5067 6.22217H16V7.99995Z" fill="#F0F0F0"/>
<path id="Vector_3" d="M16 4.44434H3.55556C2.61256 4.44434 1.70819 4.81894 1.0414 5.48573C0.374602 6.15253 0 7.0569 0 7.99989L0 16.8888H16V4.44434Z" fill="#3C3B6E"/>
<path id="Vector_4" d="M1.77856 6.8675L2.3279 7.26661L2.11812 7.91106L2.66656 7.51283L3.2159 7.91106L3.00612 7.26661L3.55545 6.8675H2.87634L2.66656 6.22217L2.45768 6.8675H1.77856ZM3.55634 8.64528L4.10568 9.04439L3.8959 9.68883L4.44434 9.29061L4.99368 9.68883L4.7839 9.04439L5.33323 8.64528H4.65412L4.44434 7.99995L4.23545 8.64528H3.55634ZM7.1119 8.64528L7.66123 9.04439L7.45145 9.68883L7.9999 9.29061L8.54923 9.68883L8.33945 9.04439L8.88879 8.64528H8.20968L7.9999 7.99995L7.79101 8.64528H7.1119ZM10.6675 8.64528L11.2168 9.04439L11.007 9.68883L11.5555 9.29061L12.1048 9.68883L11.895 9.04439L12.4443 8.64528H11.7652L11.5555 7.99995L11.3466 8.64528H10.6675ZM3.55634 12.2008L4.10568 12.5999L3.8959 13.2444L4.44434 12.8462L4.99368 13.2444L4.7839 12.5999L5.33323 12.2008H4.65412L4.44434 11.5555L4.23545 12.2008H3.55634ZM7.1119 12.2008L7.66123 12.5999L7.45145 13.2444L7.9999 12.8462L8.54923 13.2444L8.33945 12.5999L8.88879 12.2008H8.20968L7.9999 11.5555L7.79101 12.2008H7.1119ZM10.6675 12.2008L11.2168 12.5999L11.007 13.2444L11.5555 12.8462L12.1048 13.2444L11.895 12.5999L12.4443 12.2008H11.7652L11.5555 11.5555L11.3466 12.2008H10.6675ZM5.33412 6.8675L5.88345 7.26661L5.67368 7.91106L6.22212 7.51283L6.77145 7.91106L6.56168 7.26661L7.11101 6.8675H6.4319L6.22212 6.22217L6.01323 6.8675H5.33412ZM8.88968 6.8675L9.43901 7.26661L9.22923 7.91106L9.77768 7.51283L10.327 7.91106L10.1172 7.26661L10.6666 6.8675H9.98745L9.77768 6.22217L9.56879 6.8675H8.88968ZM12.4452 6.8675L12.9946 7.26661L12.7848 7.91106L13.3332 7.51283L13.8826 7.91106L13.6728 7.26661L14.2221 6.8675H13.543L13.3332 6.22217L13.1243 6.8675H12.4452ZM1.77856 10.4231L2.3279 10.8222L2.11812 11.4666L2.66656 11.0684L3.2159 11.4666L3.00612 10.8222L3.55545 10.4231H2.87634L2.66656 9.77772L2.45768 10.4231H1.77856ZM5.67368 11.4666L6.22212 11.0684L6.77145 11.4666L6.56168 10.8222L7.11101 10.4231H6.4319L6.22212 9.77772L6.01323 10.4231H5.33412L5.88345 10.8222L5.67368 11.4666ZM8.88968 10.4231L9.43901 10.8222L9.22923 11.4666L9.77768 11.0684L10.327 11.4666L10.1172 10.8222L10.6666 10.4231H9.98745L9.77768 9.77772L9.56879 10.4231H8.88968ZM12.4452 10.4231L12.9946 10.8222L12.7848 11.4666L13.3332 11.0684L13.8826 11.4666L13.6728 10.8222L14.2221 10.4231H13.543L13.3332 9.77772L13.1243 10.4231H12.4452ZM1.77856 13.9786L2.3279 14.3777L2.11812 15.0222L2.66656 14.6239L3.2159 15.0222L3.00612 14.3777L3.55545 13.9786H2.87634L2.66656 13.3333L2.45768 13.9786H1.77856ZM5.67368 15.0222L6.22212 14.6239L6.77145 15.0222L6.56168 14.3777L7.11101 13.9786H6.4319L6.22212 13.3333L6.01323 13.9786H5.33412L5.88345 14.3777L5.67368 15.0222ZM8.88968 13.9786L9.43901 14.3777L9.22923 15.0222L9.77768 14.6239L10.327 15.0222L10.1172 14.3777L10.6666 13.9786H9.98745L9.77768 13.3333L9.56879 13.9786H8.88968ZM12.4452 13.9786L12.9946 14.3777L12.7848 15.0222L13.3332 14.6239L13.8826 15.0222L13.6728 14.3777L14.2221 13.9786H13.543L13.3332 13.3333L13.1243 13.9786H12.4452Z" fill="white"/>
</g>
</svg>
