<svg width="40" height="40" viewBox="0 0 40 40" fill="none" xmlns="http://www.w3.org/2000/svg">
<g id="youtube runded">
<path id="Vector" d="M30.625 0H9.375C4.19733 0 0 4.19733 0 9.375V30.625C0 35.8027 4.19733 40 9.375 40H30.625C35.8027 40 40 35.8027 40 30.625V9.375C40 4.19733 35.8027 0 30.625 0Z" fill="#FF0000"/>
<path id="Vector_2" d="M31.149 14.2662C31.0152 13.7637 30.7542 13.3056 30.3919 12.9376C30.0297 12.5695 29.5789 12.3043 29.0844 12.1683C27.2741 11.6666 19.988 11.6666 19.988 11.6666C19.988 11.6666 12.7016 11.6818 10.8912 12.1835C10.3967 12.3195 9.94592 12.5847 9.58369 12.9528C9.22145 13.3209 8.96044 13.779 8.82665 14.2814C8.27906 17.5498 8.06664 22.53 8.84168 25.6676C8.97549 26.17 9.23651 26.6281 9.59874 26.9961C9.96098 27.3642 10.4118 27.6294 10.9063 27.7654C12.7166 28.2671 20.0029 28.2671 20.0029 28.2671C20.0029 28.2671 27.289 28.2671 29.0993 27.7654C29.5938 27.6295 30.0446 27.3642 30.4069 26.9962C30.7691 26.6281 31.0301 26.17 31.164 25.6676C31.7415 22.3946 31.9195 17.4175 31.149 14.2662Z" fill="#F4F4F4"/>
<path id="Vector_3" d="M17.6689 23.5241L23.7133 19.9669L17.6689 16.4097V23.5241Z" fill="#FF0000"/>
</g>
</svg>
