<svg width="22" height="22" viewBox="0 0 22 22" fill="none" xmlns="http://www.w3.org/2000/svg">
<g id="Group">
<path id="Vector" opacity="0.5" d="M11 22C17.075 22 22 17.075 22 11C22 4.925 17.075 0 11 0C4.925 0 0 4.925 0 11C0 12.76 0.413 14.423 1.148 15.898C1.343 16.29 1.408 16.738 1.295 17.161L0.64 19.609C0.575229 19.8513 0.575324 20.1064 0.640274 20.3486C0.705224 20.5909 0.832745 20.8118 1.01004 20.9892C1.18734 21.1666 1.40817 21.2942 1.65038 21.3593C1.89259 21.4244 2.14767 21.4246 2.39 21.36L4.84 20.705C5.26453 20.5987 5.71327 20.651 6.102 20.852C7.62351 21.6094 9.30039 22.0025 11 22Z" fill="white"/>
<path id="Vector_2" d="M9.9 11C9.9 11.2918 10.0159 11.5716 10.2222 11.7778C10.4285 11.9841 10.7083 12.1 11 12.1C11.2917 12.1 11.5715 11.9841 11.7778 11.7778C11.9841 11.5716 12.1 11.2918 12.1 11C12.1 10.7083 11.9841 10.4285 11.7778 10.2222C11.5715 10.0159 11.2917 9.90002 11 9.90002C10.7083 9.90002 10.4285 10.0159 10.2222 10.2222C10.0159 10.4285 9.9 10.7083 9.9 11ZM5.5 11C5.5 11.1445 5.52845 11.2875 5.58373 11.421C5.63901 11.5544 5.72004 11.6757 5.82218 11.7778C5.92433 11.88 6.04559 11.961 6.17905 12.0163C6.31251 12.0716 6.45555 12.1 6.6 12.1C6.74445 12.1 6.88749 12.0716 7.02095 12.0163C7.15441 11.961 7.27567 11.88 7.37782 11.7778C7.47996 11.6757 7.56099 11.5544 7.61627 11.421C7.67155 11.2875 7.7 11.1445 7.7 11C7.7 10.7083 7.58411 10.4285 7.37782 10.2222C7.17153 10.0159 6.89174 9.90002 6.6 9.90002C6.30826 9.90002 6.02847 10.0159 5.82218 10.2222C5.61589 10.4285 5.5 10.7083 5.5 11ZM14.3 11C14.3 11.1445 14.3285 11.2875 14.3837 11.421C14.439 11.5544 14.52 11.6757 14.6222 11.7778C14.7243 11.88 14.8456 11.961 14.979 12.0163C15.1125 12.0716 15.2555 12.1 15.4 12.1C15.5445 12.1 15.6875 12.0716 15.821 12.0163C15.9544 11.961 16.0757 11.88 16.1778 11.7778C16.28 11.6757 16.361 11.5544 16.4163 11.421C16.4715 11.2875 16.5 11.1445 16.5 11C16.5 10.7083 16.3841 10.4285 16.1778 10.2222C15.9715 10.0159 15.6917 9.90002 15.4 9.90002C15.1083 9.90002 14.8285 10.0159 14.6222 10.2222C14.4159 10.4285 14.3 10.7083 14.3 11Z" fill="white"/>
</g>
</svg>
