<svg width="81" height="78" viewBox="0 0 81 78" fill="none" xmlns="http://www.w3.org/2000/svg">
<g id="Group">
<g id="Group_2" opacity="0.6">
<g id="Group_3">
<path id="Vector" d="M72.7443 66.7326C69.7788 64.2605 71.7265 66.1987 68.5062 63.4705C65.6446 61.0427 50.8355 42.1928 50.8355 42.1928C50.8355 42.1928 60.3792 38.8442 61.838 32.8476C62.2154 31.2887 62.4509 29.9885 62.551 28.8539L63.9154 26.9492L66.0313 27.125L67.1672 27.2149L67.1666 27.22L69.0033 27.3766C69.1747 28.0499 69.2536 28.7532 69.4031 29.4341C69.5321 30.029 69.6341 30.631 69.7413 31.2336C69.7349 31.3267 69.7342 31.4153 69.7387 31.5045C69.7317 31.4775 69.7195 31.4499 69.7124 31.423C69.6951 31.3113 69.6887 31.1958 69.6874 31.0809C69.6893 31.0238 69.6123 31.0141 69.5956 31.0642C69.5808 31.0154 69.5661 30.9667 69.5462 30.9172C69.5263 30.8678 69.4557 30.8903 69.4499 30.9365C69.4461 30.9673 69.4467 31.0039 69.448 31.0353C69.4442 31.0244 69.4448 31.0193 69.4409 31.0084C69.4275 30.9493 69.328 30.9525 69.3306 31.0154C69.3318 31.0469 69.3376 31.0841 69.3389 31.1155C69.3126 31.034 69.2914 30.9532 69.2542 30.8755C69.2298 30.8203 69.1438 30.8409 69.1419 30.898C69.138 31.1791 69.2118 31.4647 69.2927 31.7355C69.3562 31.9364 69.4512 32.2194 69.6386 32.3471C69.6161 32.3599 69.5885 32.3721 69.5712 32.3856C69.5321 32.4068 69.5366 32.4543 69.5654 32.4735C69.498 32.5537 69.4589 32.6583 69.4781 32.7963C69.5038 33.0081 69.6071 33.2661 69.8279 33.3354C69.8831 33.3527 69.9344 33.3591 69.9864 33.3604C69.6097 34.6221 69.4762 35.982 69.3805 37.2893C69.2933 38.4881 69.1758 39.9282 69.6706 41.059C69.7033 41.1309 69.8073 41.0917 69.7957 41.0173C69.7758 40.8844 69.7611 40.7522 69.7463 40.62C69.7624 40.6168 69.779 40.6085 69.7765 40.5873C69.8099 39.9449 69.7078 39.3012 69.747 38.6543C69.7675 38.3649 69.7778 38.0742 69.7881 37.7834C69.7906 38.0549 69.7932 38.3264 69.806 38.5991C69.7656 39.4648 69.797 40.3396 70.0775 41.1411C70.0935 41.1796 70.1628 41.1674 70.1577 41.1251C70.1275 40.5738 70.0595 40.0335 70.0396 39.4835C70.0383 39.452 70.0371 39.4206 70.0358 39.3891C70.046 39.4738 70.0518 39.5528 70.0672 39.6381C70.0743 39.6651 70.1211 39.6657 70.1198 39.6343C70.082 38.9778 70.0852 38.3264 70.1038 37.6769C70.1141 37.553 70.1192 37.4285 70.1301 37.2996C70.1552 36.9742 70.1751 36.6482 70.1898 36.3215C70.1898 36.4049 70.1898 36.4884 70.1898 36.5718C70.1853 36.7746 70.1802 36.9825 70.1757 37.1853C70.168 38.2898 70.1307 39.4636 70.3226 40.5565C70.329 40.5886 70.365 40.5931 70.3874 40.5802C70.4118 40.7189 70.4413 40.8581 70.4875 40.989C70.5151 41.0603 70.6428 41.0397 70.6371 40.9608C70.5646 39.3301 70.4215 37.6801 70.5049 36.0533C70.5171 35.7889 70.5139 35.5225 70.5152 35.262C70.546 35.7247 70.5614 36.1855 70.5928 36.643C70.684 37.9163 70.5626 39.2203 70.707 40.4846C70.7147 40.5481 70.8104 40.534 70.8174 40.4776C70.82 40.457 70.8219 40.4416 70.8245 40.4211C70.8322 40.568 70.8399 40.715 70.8469 40.8671C70.8495 40.93 70.9496 40.9634 70.9689 40.8928C71.0497 40.5379 71.0433 40.1721 71.0266 39.805C71.0664 40.1541 71.1165 40.5045 71.1781 40.8459C71.1941 40.9262 71.3199 40.921 71.325 40.8382C71.3398 39.5521 71.18 38.2442 71.0742 36.9639C71.0697 36.9164 71.0652 36.8689 71.0607 36.8215C71.0639 36.8375 71.0671 36.8535 71.0645 36.8741C71.2346 38.225 71.4239 39.6304 71.4046 40.9942C71.4059 41.0673 71.5169 41.0969 71.5317 41.0205C71.533 41.0102 71.5349 40.9948 71.5362 40.9846C71.585 41.0115 71.66 40.9948 71.6581 40.9268C71.6568 40.6034 71.6498 40.2844 71.6369 39.9699C71.6549 40.2016 71.6787 40.4288 71.6915 40.6598C71.6934 40.7279 71.8038 40.7625 71.8186 40.6861C71.9168 40.1926 71.8699 39.6914 71.8115 39.1992C71.7275 38.4952 71.6389 37.7854 71.5548 37.0814C71.5189 36.7849 71.4843 36.4781 71.4451 36.1656C71.4631 36.2721 71.4765 36.3729 71.4952 36.4743C71.6145 37.1879 71.7441 37.9028 71.8372 38.6184C71.9322 39.3603 71.9283 40.1002 71.9546 40.8492C71.9553 40.9274 72.0855 40.9698 72.1073 40.8787C72.2479 40.2549 72.1741 39.5939 72.1228 38.9617C72.0522 38.1082 71.8969 37.2649 71.757 36.4236C71.6319 35.6727 71.4849 34.9295 71.2796 34.1947C71.1756 33.8167 71.1236 33.3149 70.831 33.028C70.9144 32.9446 70.9735 32.8477 70.9831 32.7289C70.9991 32.5172 70.9324 32.3003 70.7373 32.1924C70.7129 32.179 70.6924 32.1764 70.668 32.1629C70.7424 31.9845 70.7444 31.7605 70.7578 31.5693C70.7732 31.3626 70.7694 31.1432 70.6783 30.9545C70.6494 30.8935 70.5615 30.9294 70.5698 30.9878C70.6 31.2054 70.6 31.414 70.5679 31.629C70.5666 31.6392 70.5653 31.6495 70.564 31.6598C70.564 31.6598 70.5647 31.6546 70.5653 31.6495C70.5704 31.525 70.5608 31.3934 70.5345 31.2702C70.5178 31.1534 70.4896 31.0456 70.4293 30.9442C70.4042 30.8941 70.3381 30.9224 70.342 30.975C70.3465 31.0225 70.3458 31.0694 70.3452 31.1162C70.3401 31.0738 70.2945 31.0629 70.2618 31.0745C70.2521 31.0263 70.2483 30.9737 70.2387 30.9256C70.2207 30.8608 70.1167 30.8582 70.118 30.9314C70.1161 31.0719 70.1142 31.2125 70.1122 31.353C70.0988 31.2522 70.0846 31.1566 70.0493 31.0636C70.041 31.0469 70.0269 31.0347 70.0166 31.0334C69.9139 30.4783 69.7849 29.9251 69.6701 29.3841C69.5693 28.897 69.457 28.4189 69.3774 27.9292C69.3473 27.7534 69.3178 27.5724 69.2555 27.403L71.0768 27.5576L71.0813 27.5634L71.0922 27.5596L71.5222 27.3318L61.8703 11.5668L60.0086 8.52356L40.0435 5.47497L39.7111 5.7567L39.7008 5.75541L39.6982 5.77595L42.2883 11.5018C41.8788 12.1076 41.5182 12.7404 41.2692 13.1889C35.5671 13.3365 23.3281 14.0538 23.3281 14.0538C23.3281 14.0538 22.5927 14.0557 22.5971 15.021L22.6341 34.9547C22.6367 35.3096 22.2664 35.1433 21.8807 35.0586L16.3789 34.1466C16.3308 33.9894 16.2737 33.8206 16.2088 33.63C15.8636 32.6378 15.949 31.4544 15.3906 31.5828C15.2456 31.6168 14.8926 31.7291 14.4658 31.9312C14.652 30.9429 14.8734 29.9642 15.1455 28.9971C15.3701 28.2013 15.648 27.4383 15.9176 26.6586C16.026 26.3332 16.189 25.9886 16.32 25.6503C16.2981 25.658 16.2866 25.667 16.2744 25.6812C15.3425 27.7547 14.6199 29.9065 14.1097 32.1109C14.0205 32.1571 13.9357 32.2091 13.8459 32.2605C14.1495 30.2909 14.7361 28.3515 15.4651 26.4821C15.5036 26.3409 15.5473 26.2003 15.5909 26.0598C15.5685 26.0309 15.562 25.9988 15.5787 25.9488C15.7032 25.6202 15.8277 25.2916 15.9625 24.9643C16.071 24.6806 16.1884 24.4085 16.32 24.1486C16.5138 23.7244 17.1453 23.3445 17.3879 22.9473C17.316 22.8966 17.1819 22.885 17.1126 22.9389C17.1061 22.9485 17.0946 22.9575 17.083 22.9665C17.0779 22.9659 17.0728 22.9652 17.0676 22.9646C16.9277 22.9575 16.7872 22.9556 16.6524 22.9492C16.4734 22.9633 15.8823 22.9363 15.7078 22.9145L14.4807 22.7194C15.8438 22.7438 17.0734 22.4595 17.4347 21.9885C18.4937 20.6087 12.5028 19.9797 11.8502 19.9868C10.969 19.9861 9.08225 19.9797 8.52327 20.864C8.50338 20.898 8.48412 20.9269 8.46936 20.9616C8.35191 21.5674 8.30056 22.1867 8.29542 22.8118C8.36087 23.9567 8.443 25.0932 8.48214 26.24C8.53154 26.9293 8.56619 27.6115 8.53923 28.286C8.51227 29.1273 8.46926 29.9719 8.41598 30.8151C8.1888 30.6303 8.00141 30.5026 7.909 30.4493C7.41805 30.1637 7.14401 31.3131 6.517 32.1577C5.43048 33.6331 5.49786 33.97 5.49786 33.97C5.4093 34.3448 6.76469 34.8479 8.02317 35.4589C8.01932 35.4897 8.01547 35.5205 8.01675 35.552C8.01547 35.5622 8.01483 35.5674 8.01354 35.5776C7.80561 35.8645 7.64645 36.1783 7.45199 36.5242C7.1709 37.021 5.40795 39.6111 5.40795 39.6111C5.40795 39.6111 5.5164 40.6206 6.13055 41.7558C6.43089 42.3148 6.69336 42.8013 6.87818 43.1581C6.52776 44.9184 6.26205 47.2108 5.6331 48.905C6.07784 49.5186 7.53912 49.9255 8.23799 50.0911C9.35658 50.3612 10.7665 50.2194 11.9024 50.1007C12.3619 50.0539 12.8067 49.9165 13.1462 49.6618C13.4773 49.4737 13.7738 49.2292 14.0196 48.9315C14.4381 48.4206 13.8791 46.5101 13.8002 46.0153C13.6917 45.3395 13.5948 44.6548 13.5037 43.9655C13.4986 43.6312 13.478 43.2949 13.4569 42.9637C13.4864 42.9361 13.5101 42.913 13.5397 42.8854C13.5698 42.8527 13.5993 42.8251 13.6295 42.7924C13.7957 44.0907 14.0595 45.4429 14.6248 46.5512C14.6415 46.5845 14.6704 46.6038 14.6993 46.6231C14.4991 46.0974 14.5029 45.4409 14.4426 44.9224C14.3425 44.013 14.2578 43.1056 14.1679 42.1975C14.587 41.6815 14.9875 41.1893 14.9875 41.1893L14.9881 41.1841C17.4429 41.5692 22.5917 41.4672 22.6109 42.7315C22.6443 44.8423 22.426 52.4279 22.426 52.4279C22.4286 53.325 22.4311 54.6811 22.4343 55.8234C22.4388 57.7898 22.646 61.9715 21.9625 63.101C21.6397 63.6394 21.2482 63.8929 20.19 64.5167C19.2049 65.0975 18.1325 65.6673 16.6256 64.1649C15.6515 63.1984 14.6767 60.8188 14.6728 58.3467C14.6709 57.8616 14.5541 56.752 15.6342 53.4925C16.1188 52.0357 11.7926 55.5672 12.0428 62.7421C12.2706 69.4293 19.0565 70.872 21.0075 70.8656C24.4031 70.8573 27.3167 70.3664 29.2503 67.4535C30.5294 65.5224 31.6653 62.2334 31.6564 57.2579L31.6475 52.4074L31.6455 51.9223C31.6392 47.5102 31.8741 45.2974 31.706 43.4722C31.6732 43.1083 32.0025 42.8106 32.4055 42.8401C35.029 43.0429 39.4135 42.7567 40.2388 43.204C40.6688 43.4351 52.4616 57.5905 57.8164 62.8485C63.7475 68.6687 64.8885 68.2169 68.861 68.5154C74.1639 68.8915 73.8725 67.6767 72.7443 66.7326ZM70.2746 33.3078C70.2778 33.3656 70.2759 33.4227 70.2688 33.4792C70.2701 33.4272 70.272 33.3701 70.2746 33.3078ZM70.4382 33.2501C70.4427 33.2558 70.4414 33.2661 70.4459 33.2719C70.4453 33.277 70.4491 33.2879 70.4485 33.293C70.4395 33.2815 70.4363 33.2655 70.4331 33.2494L70.4382 33.2501ZM70.5858 33.2372L70.5813 33.2314C70.5781 33.2154 70.5749 33.1994 70.5711 33.1884C70.5711 33.1884 70.5762 33.1891 70.5768 33.1839C70.58 33.2 70.5832 33.216 70.5858 33.2372ZM69.8132 32.2438C69.8183 32.2444 69.8189 32.2393 69.8241 32.2399L69.8286 32.2457L69.8337 32.2463C69.8279 32.2508 69.8228 32.2502 69.817 32.2547C69.8176 32.2495 69.8125 32.2489 69.8132 32.2438ZM70.9645 33.8373C70.8804 33.5921 70.7848 33.3559 70.6667 33.1326C70.6776 33.1288 70.684 33.1191 70.6949 33.1153C70.8015 33.3476 70.8913 33.5883 70.9645 33.8373ZM11.0383 20.5162C12.0465 20.418 13.074 20.6247 14.054 20.8358C14.5006 20.9334 14.9434 21.0618 15.3811 21.1895C15.8291 21.3185 16.2488 21.7985 15.5377 21.8973C14.5879 22.0289 10.9818 21.3852 9.81128 21.1971C9.65855 20.7504 10.6584 20.5521 11.0383 20.5162ZM9.67456 22.9998C10.5756 23.5087 11.0434 23.6454 12.0542 23.777C13.398 23.9554 14.3761 24.0986 15.736 23.8566C14.9062 24.8635 14.4454 26.0469 14.0513 27.1553C13.416 28.9425 12.873 30.7831 12.5149 32.6468C12.504 32.6923 12.4873 32.7841 12.4674 32.9016C12.3326 33.0203 11.7326 33.9829 11.7326 33.9829C11.7326 33.9829 11.7326 33.9829 11.0825 34.5117L9.58141 31.4197C9.65844 30.2196 9.71814 28.9913 9.7451 28.1499C9.78362 27.091 9.86 26.0212 9.73102 24.9674C9.66107 24.4008 9.56033 23.1628 9.48653 22.8772C9.54365 22.9209 9.60654 22.96 9.67456 22.9998ZM8.13361 30.905C8.95762 31.446 10.1545 34.719 10.1545 34.719C10.1545 34.719 8.51993 32.6531 8.11434 31.8933C7.7094 31.1283 7.30382 30.3685 8.13361 30.905ZM7.42683 48.0708C7.37806 48.0438 7.34276 47.9925 7.32094 47.9168C7.28372 47.8391 7.27281 47.7595 7.29399 47.6735C7.30491 47.2942 7.48076 46.5132 7.73426 45.6116C7.83567 45.2592 7.89728 44.8915 7.92745 44.5251C7.98586 43.7241 7.86392 43.6985 8.35809 42.1647C8.62893 41.3747 8.93698 40.5372 9.18278 39.9891C9.76616 38.7011 10.1288 37.8026 10.2623 37.2353C10.3168 37.0075 10.3951 36.84 10.4728 36.7194L10.8854 36.9222C10.9162 37.0512 10.9323 37.2148 10.9181 37.4112C10.8771 37.9901 11.119 39.0579 11.2929 40.4615C11.5316 42.431 11.7774 44.4276 11.7466 44.1734C11.7466 44.1734 12.0854 44.1741 12.5353 43.8288C12.6675 43.8975 12.697 43.9116 12.8299 43.9751C12.8761 44.9403 12.9511 45.8831 13.066 46.8412C13.0936 47.0793 13.168 47.3598 13.2168 47.5953C13.2219 47.6377 13.2277 47.6749 13.2328 47.7172C13.2515 47.7352 13.2688 47.7634 13.2758 47.7904C13.5884 49.545 8.45941 49.1124 7.42683 48.0708ZM15.1949 32.4812C15.0325 33.5299 11.7967 34.6375 11.7967 34.6375C11.7967 34.6375 13.4069 33.2276 14.1841 32.5999C14.8451 32.0673 15.3438 31.5404 15.1949 32.4812ZM30.866 35.4258C30.4212 35.3129 30.4277 34.7609 30.4277 34.7609L30.4041 22.6034C30.4041 22.6034 42.2215 18.7517 49.3257 22.7371C56.4306 26.7174 52.4997 33.3853 48.7788 34.8702C46.72 35.6975 39.4951 37.5995 30.866 35.4258Z" fill="black"/>
</g>
</g>
<path id="Vector_2" d="M72.1058 65.9176C69.1402 63.4455 71.0879 65.3836 67.8676 62.6555C65.006 60.2277 50.197 41.3777 50.197 41.3777C50.197 41.3777 59.7406 38.0291 61.1994 32.0325C61.5768 30.4737 61.8123 29.1735 61.9125 28.0389L63.2769 26.1342L65.3928 26.31L66.5287 26.3999L66.528 26.405L68.3647 26.5616C68.5361 27.2348 68.615 27.9382 68.7645 28.6191C68.8935 29.214 68.9956 29.816 69.1027 30.4186C69.0963 30.5117 69.0957 30.6002 69.1002 30.6894C69.0931 30.6625 69.0809 30.6349 69.0738 30.6079C69.0565 30.4963 69.0501 30.3807 69.0488 30.2659C69.0507 30.2088 68.9737 30.1991 68.957 30.2492C68.9423 30.2004 68.9275 30.1516 68.9076 30.1022C68.8877 30.0528 68.8171 30.0753 68.8114 30.1215C68.8075 30.1523 68.8082 30.1889 68.8094 30.2203C68.8056 30.2094 68.8062 30.2043 68.8024 30.1933C68.7889 30.1343 68.6894 30.1375 68.692 30.2004C68.6933 30.2319 68.6991 30.2691 68.7003 30.3005C68.674 30.219 68.6528 30.1382 68.6156 30.0605C68.5912 30.0053 68.5052 30.0258 68.5033 30.083C68.4995 30.3641 68.5733 30.6496 68.6541 30.9205C68.7177 31.1213 68.8126 31.4043 69 31.5321C68.9776 31.5449 68.95 31.5571 68.9326 31.5706C68.8935 31.5917 68.898 31.6392 68.9269 31.6585C68.8595 31.7387 68.8203 31.8433 68.8396 31.9813C68.8652 32.1931 68.9686 32.4511 69.1893 32.5204C69.2445 32.5377 69.2959 32.5441 69.3478 32.5454C68.9711 33.8071 68.8376 35.167 68.742 36.4743C68.6547 37.6731 68.5372 39.1132 69.032 40.244C69.0647 40.3158 69.1687 40.2767 69.1572 40.2022C69.1373 40.0694 69.1225 39.9372 69.1077 39.805C69.1238 39.8018 69.1405 39.7934 69.1379 39.7723C69.1713 39.1299 69.0693 38.4862 69.1084 37.8393C69.1289 37.5498 69.1392 37.2591 69.1495 36.9684C69.1521 37.2399 69.1546 37.5113 69.1675 37.7841C69.127 38.6498 69.1584 39.5245 69.4389 40.3261C69.4549 40.3646 69.5242 40.3524 69.5191 40.3101C69.489 39.7588 69.4209 39.2184 69.401 38.6684C69.3998 38.637 69.3985 38.6055 69.3972 38.5741C69.4075 38.6588 69.4132 38.7377 69.4286 38.8231C69.4357 38.8501 69.4825 38.8507 69.4813 38.8193C69.4434 38.1627 69.4466 37.5113 69.4652 36.8619C69.4755 36.738 69.4806 36.6135 69.4916 36.4845C69.5166 36.1592 69.5365 35.8331 69.5513 35.5065C69.5513 35.5899 69.5513 35.6733 69.5513 35.7568C69.5468 35.9596 69.5416 36.1675 69.5371 36.3703C69.5294 37.4748 69.4922 38.6485 69.684 39.7415C69.6905 39.7736 69.7264 39.778 69.7489 39.7652C69.7733 39.9038 69.8028 40.0431 69.849 40.174C69.8766 40.2452 70.0043 40.2247 69.9985 40.1458C69.926 38.5151 69.7829 36.8651 69.8664 35.2382C69.8786 34.9738 69.8753 34.7075 69.8766 34.4469C69.9074 34.9097 69.9228 35.3704 69.9543 35.828C70.0454 37.1013 69.9241 38.4053 70.0685 39.6696C70.0762 39.7331 70.1718 39.719 70.1789 39.6625C70.1814 39.642 70.1833 39.6266 70.1859 39.6061C70.1936 39.753 70.2013 39.9 70.2084 40.0521C70.2109 40.115 70.311 40.1483 70.3303 40.0778C70.4112 39.7229 70.4047 39.3571 70.3881 38.99C70.4279 39.3391 70.4779 39.6895 70.5395 40.0309C70.5556 40.1111 70.6813 40.106 70.6865 40.0232C70.7013 38.7371 70.5415 37.4292 70.4356 36.1489C70.4311 36.1014 70.4266 36.0539 70.4221 36.0064C70.4253 36.0225 70.4285 36.0385 70.426 36.0591C70.596 37.41 70.7853 38.8154 70.7661 40.1792C70.7673 40.2523 70.8784 40.2818 70.8931 40.2055C70.8944 40.1952 70.8963 40.1798 70.8976 40.1695C70.9464 40.1965 71.0215 40.1798 71.0196 40.1118C71.0183 39.7883 71.0112 39.4694 70.9984 39.1549C71.0163 39.3866 71.0401 39.6138 71.0529 39.8448C71.0549 39.9128 71.1652 39.9475 71.18 39.8711C71.2782 39.3776 71.2313 38.8764 71.1729 38.3842C71.0889 37.6801 71.0003 36.9704 70.9163 36.2663C70.8803 35.9699 70.8457 35.6631 70.8065 35.3506C70.8245 35.4571 70.838 35.5578 70.8566 35.6592C70.976 36.3729 71.1056 37.0878 71.1986 37.8034C71.2936 38.5452 71.2897 39.2852 71.316 40.0341C71.3167 40.1124 71.447 40.1548 71.4688 40.0636C71.6093 39.4399 71.5355 38.7788 71.4842 38.1467C71.4136 37.2932 71.2583 36.4499 71.1184 35.6085C70.9933 34.8577 70.8463 34.1145 70.641 33.3797C70.537 33.0017 70.485 32.4999 70.1924 32.213C70.2758 32.1296 70.3349 32.0326 70.3445 31.9139C70.3606 31.7021 70.2938 31.4852 70.0987 31.3774C70.0743 31.3639 70.0538 31.3614 70.0294 31.3479C70.1039 31.1695 70.1058 30.9455 70.1193 30.7543C70.1347 30.5476 70.1308 30.3281 70.0397 30.1395C70.0108 30.0785 69.9229 30.1144 69.9312 30.1728C69.9614 30.3904 69.9614 30.599 69.9293 30.8139C69.928 30.8242 69.9267 30.8345 69.9255 30.8447C69.9255 30.8447 69.9261 30.8396 69.9267 30.8345C69.9319 30.71 69.9222 30.5784 69.8959 30.4552C69.8793 30.3384 69.851 30.2306 69.7907 30.1292C69.7657 30.0791 69.6996 30.1074 69.7034 30.16C69.7079 30.2075 69.7073 30.2543 69.7066 30.3012C69.7015 30.2588 69.6559 30.2479 69.6232 30.2595C69.6136 30.2113 69.6097 30.1587 69.6001 30.1106C69.5821 30.0458 69.4782 30.0432 69.4794 30.1163C69.4775 30.2569 69.4756 30.3974 69.4737 30.538C69.4602 30.4372 69.4461 30.3416 69.4108 30.2485C69.4024 30.2319 69.3883 30.2197 69.378 30.2184C69.2754 29.6633 69.1464 29.1101 69.0315 28.5691C68.9308 28.082 68.8185 27.6038 68.7389 27.1142C68.7087 26.9383 68.6792 26.7574 68.617 26.5879L70.4383 26.7426L70.4428 26.7484L70.4537 26.7445L70.8837 26.5167L61.2318 10.7518L59.37 7.70853L39.4004 4.65417L39.068 4.9359L39.0577 4.93461L39.0552 4.95515L41.6452 10.681C41.2358 11.2868 40.8751 11.9196 40.6261 12.3681C34.9241 12.5157 22.685 13.233 22.685 13.233C22.685 13.233 21.9496 13.2349 21.9541 14.2002L21.9911 34.1339C21.9936 34.4888 21.6233 34.3225 21.2376 34.2378L15.7358 33.3258C15.6877 33.1686 15.6306 32.9998 15.5658 32.8092C15.2205 31.817 15.3059 30.6336 14.7476 30.762C14.6025 30.796 14.2496 30.9083 13.8228 31.1104C14.0089 30.1221 14.2303 29.1434 14.5024 28.1763C14.7271 27.3805 15.005 26.6175 15.2745 25.8378C15.383 25.5124 15.546 25.1678 15.6769 24.8296C15.6551 24.8373 15.6435 24.8462 15.6313 24.8604C14.6995 26.9339 13.9768 29.0857 13.4666 31.2901C13.3774 31.3363 13.2927 31.3883 13.2028 31.4397C13.5064 29.4701 14.093 27.5307 14.8221 25.6613C14.8606 25.5201 14.9042 25.3795 14.9478 25.239C14.9254 25.2101 14.919 25.178 14.9357 25.128C15.0602 24.7994 15.1847 24.4708 15.3194 24.1435C15.4279 23.8598 15.5453 23.5877 15.6769 23.3278C15.8707 22.9036 16.5022 22.5237 16.7448 22.1265C16.6729 22.0758 16.5388 22.0642 16.4695 22.1181C16.4631 22.1277 16.4515 22.1367 16.44 22.1457C16.4348 22.1451 16.4297 22.1444 16.4246 22.1438C16.2847 22.1367 16.1441 22.1348 16.0094 22.1284C15.8303 22.1425 15.2392 22.1155 15.0647 22.0937L13.8376 21.8986C15.2007 21.923 16.4304 21.6387 16.7917 21.1677C17.8506 19.7879 11.8598 19.1589 11.2071 19.166C10.326 19.1653 8.43919 19.1589 7.8802 20.0432C7.86031 20.0772 7.84106 20.1061 7.8263 20.1408C7.70885 20.7466 7.6575 21.3659 7.65236 21.991C7.7178 23.1359 7.79994 24.2724 7.83907 25.4192C7.88848 26.1085 7.92312 26.7907 7.89616 27.4652C7.8692 28.3065 7.82619 29.1511 7.77292 29.9943C7.54574 29.8095 7.35834 29.6818 7.26593 29.6285C6.77499 29.3429 6.50094 30.4923 5.87393 31.3369C4.78742 32.8123 4.8548 33.1492 4.8548 33.1492C4.76623 33.524 6.12162 34.0271 7.38011 34.6381C7.37626 34.6689 7.3724 34.6997 7.37369 34.7312C7.3724 34.7414 7.37176 34.7466 7.37048 34.7568C7.16254 35.0437 7.00338 35.3575 6.80893 35.7034C6.52783 36.2002 4.76489 38.7903 4.76489 38.7903C4.76489 38.7903 4.87333 39.7998 5.48748 40.935C5.78782 41.494 6.0503 41.9805 6.23512 42.3373C5.8847 44.0976 5.61898 46.39 4.99004 48.0842C5.43477 48.6978 6.89605 49.1047 7.59493 49.2703C8.71351 49.5404 10.1235 49.3986 11.2594 49.2799C11.7189 49.2331 12.1636 49.0957 12.5031 48.841C12.8343 48.6529 13.1308 48.4084 13.3766 48.1107C13.795 47.5998 13.236 45.6893 13.1571 45.1945C13.0487 44.5187 12.9518 43.834 12.8606 43.1447C12.8555 42.8104 12.835 42.4741 12.8138 42.1429C12.8433 42.1153 12.8671 42.0922 12.8966 42.0646C12.9268 42.0319 12.9563 42.0043 12.9864 41.9716C13.1526 43.2699 13.4164 44.622 13.9818 45.7304C13.9985 45.7637 14.0273 45.783 14.0562 45.8022C13.856 45.2766 13.8598 44.6201 13.7995 44.1016C13.6994 43.1922 13.6147 42.2848 13.5249 41.3767C13.944 40.8607 14.3444 40.3685 14.3444 40.3685L14.3451 40.3633C16.7998 40.7484 21.9486 40.6464 21.9679 41.9107C22.0012 44.0215 21.7829 51.6071 21.7829 51.6071C21.7855 52.5042 21.788 53.8603 21.7912 55.0026C21.7957 56.969 22.003 61.1507 21.3195 62.2802C20.9967 62.8186 20.6052 63.0721 19.5469 63.6959C18.5618 64.2767 17.4894 64.8465 15.9826 63.3441C15.0084 62.3776 14.0336 59.998 14.0298 57.5259C14.0278 57.0408 13.9111 55.9312 14.9912 52.6717C15.4757 51.2149 11.1496 54.7464 11.3998 61.9213C11.6275 68.6084 18.4135 70.0512 20.3644 70.0448C23.76 70.0365 26.6736 69.5456 28.6072 66.6327C29.8863 64.7016 31.0222 61.4126 31.0133 56.4371L31.0044 51.5866L31.0025 51.1015C30.9961 46.6894 31.231 44.4766 31.0629 42.6514C31.0302 42.2875 31.3594 41.9898 31.7624 42.0193C34.3859 42.2221 38.7704 41.9359 39.5957 42.3832C40.0257 42.6143 51.8185 56.7697 57.1733 62.0277C63.1044 67.8479 64.2455 67.3961 68.2179 67.6946C73.5311 68.072 73.2346 66.8565 72.1058 65.9176ZM69.6411 32.4934C69.6443 32.5512 69.6424 32.6083 69.6354 32.6648C69.6373 32.6077 69.6341 32.5499 69.6411 32.4934ZM69.8003 32.4299C69.8048 32.4357 69.8035 32.4459 69.808 32.4517C69.8074 32.4568 69.8112 32.4678 69.8106 32.4729C69.8016 32.4613 69.7984 32.4453 69.7952 32.4293L69.8003 32.4299ZM69.9479 32.4171L69.9434 32.4113C69.9402 32.3952 69.937 32.3792 69.9331 32.3683C69.9331 32.3683 69.9383 32.3689 69.9389 32.3638C69.9421 32.3798 69.9447 32.401 69.9479 32.4171ZM69.1752 31.4236C69.1804 31.4242 69.181 31.4191 69.1861 31.4198L69.1906 31.4255L69.1958 31.4262C69.19 31.4307 69.1849 31.43 69.1791 31.4345C69.1791 31.4345 69.1797 31.4294 69.1752 31.4236ZM70.3317 33.0178C70.2476 32.7726 70.152 32.5364 70.0339 32.3131C70.0448 32.3092 70.0512 32.2996 70.0621 32.2958C70.1635 32.5274 70.2534 32.7681 70.3317 33.0178ZM10.4004 19.6961C11.4086 19.5979 12.4361 19.8045 13.416 20.0157C13.8627 20.1132 14.3055 20.2416 14.7432 20.3693C15.1911 20.4983 15.6108 20.9783 14.8998 21.0772C13.95 21.2087 10.3439 20.565 9.17335 20.3769C9.01997 19.9354 10.0205 19.732 10.4004 19.6961ZM9.03663 22.1796C9.93766 22.6886 10.4055 22.8253 11.4163 22.9568C12.7601 23.1353 13.7382 23.2784 15.098 23.0365C14.2682 24.0434 13.8074 25.2268 13.4134 26.3351C12.778 28.1224 12.2351 29.9629 11.877 31.8266C11.866 31.8722 11.8494 31.964 11.8295 32.0814C11.6947 32.2001 11.0946 33.1628 11.0946 33.1628C11.0946 33.1628 11.0946 33.1628 10.4445 33.6916L8.94348 30.5995C9.02051 29.3994 9.0802 28.1711 9.10717 27.3298C9.14568 26.2709 9.22207 25.2011 9.09308 24.1473C9.02314 23.5806 8.9224 22.3427 8.8486 22.0571C8.90571 22.1007 8.96861 22.1399 9.03663 22.1796ZM7.49568 30.0848C8.31969 30.6258 9.51653 33.8988 9.51653 33.8988C9.51653 33.8988 7.88199 31.833 7.47641 31.0731C7.07147 30.3082 6.67102 29.549 7.49568 30.0848ZM6.7889 47.2506C6.74013 47.2237 6.70483 47.1723 6.68301 47.0966C6.64579 47.0189 6.63488 46.9394 6.65606 46.8534C6.66698 46.4741 6.84283 45.6931 7.09633 44.7914C7.19773 44.4391 7.25935 44.0713 7.28951 43.7049C7.34792 42.904 7.22599 42.8783 7.72016 41.3445C7.99099 40.5545 8.29905 39.717 8.54485 39.169C9.12822 37.8809 9.49083 36.9825 9.62432 36.4152C9.67887 36.1874 9.75717 36.0199 9.83482 35.8992L10.2475 36.102C10.2783 36.231 10.2943 36.3946 10.2802 36.591C10.2391 37.1699 10.4811 38.2378 10.655 39.6413C10.8937 41.6109 11.1394 43.6074 11.1086 43.3533C11.1086 43.3533 11.4475 43.3539 11.8974 43.0086C12.0296 43.0773 12.0591 43.0914 12.1919 43.155C12.2381 44.1202 12.3132 45.0629 12.4281 46.0211C12.4557 46.2592 12.5301 46.5396 12.5789 46.7751C12.584 46.8175 12.5898 46.8547 12.5949 46.8971C12.6135 46.915 12.6308 46.9433 12.6379 46.9702C12.9504 48.7248 7.82148 48.2922 6.7889 47.2506ZM14.5621 31.6617C14.3997 32.7103 11.1639 33.818 11.1639 33.818C11.1639 33.818 12.7741 32.4081 13.5513 31.7804C14.2117 31.2529 14.7058 30.7203 14.5621 31.6617ZM30.2274 34.6108C29.7827 34.4978 29.7891 33.9459 29.7891 33.9459L29.7655 21.7884C29.7655 21.7884 41.5829 17.9367 48.6871 21.9221C55.792 25.9024 51.8612 32.5702 48.1402 34.0552C46.0821 34.8773 38.8571 36.7794 30.2274 34.6108Z" fill="white"/>
</g>
</svg>
