<svg width="97" height="97" viewBox="0 0 97 97" fill="none" xmlns="http://www.w3.org/2000/svg">
<g id="Group">
<g id="Group_2">
<path id="Vector" d="M63.1753 6.60476L33.587 6.66539C32.0538 6.66665 30.59 7.28144 29.5054 8.36601L8.62996 29.325C7.55051 30.4102 6.94467 31.8779 6.94593 33.4111L7.00656 62.9994C7.00783 64.5326 7.62262 65.9965 8.70718 67.081L29.6707 87.9622C30.7559 89.0417 32.2236 89.6475 33.7567 89.6463L63.3451 89.5856C64.8783 89.5844 66.3421 88.9696 67.4267 87.885L88.3079 66.9215C89.3873 65.8363 89.9932 64.3686 89.9919 62.8354L89.9313 33.2471C89.93 31.7139 89.3152 30.2501 88.2307 29.1655L67.2614 8.28879C66.1762 7.20933 64.7034 6.60285 63.1753 6.60476Z" stroke="#336699" stroke-width="3" stroke-miterlimit="10"/>
</g>
</g>
</svg>
