<?xml version="1.0" encoding="UTF-8"?>
<!DOCTYPE svg PUBLIC "-//W3C//DTD SVG 1.1//EN" "http://www.w3.org/Graphics/SVG/1.1/DTD/svg11.dtd">
<!-- Creator: CorelDRAW -->
<svg xmlns="http://www.w3.org/2000/svg" xml:space="preserve" width="512px" height="512px" version="1.1" style="shape-rendering:geometricPrecision; text-rendering:geometricPrecision; image-rendering:optimizeQuality; fill-rule:evenodd; clip-rule:evenodd"
viewBox="0 0 512 512"
 xmlns:xlink="http://www.w3.org/1999/xlink">
 <defs>
  <style type="text/css">
   <![CDATA[
    .fil0 {fill:black}
   ]]>
  </style>
 </defs>
 <g id="Layer_x0020_1">
  <metadata id="CorelCorpID_0Corel-Layer"/>
  <g id="_464626952">
   <g>
    <g>
     <path class="fil0" d="M245 270c-1,0 -1,0 -2,0l-238 -63c-3,-1 -5,-4 -5,-7 0,-3 2,-6 5,-7l238 -64c1,0 3,0 4,0l239 64c3,1 5,4 5,7 0,3 -2,6 -5,7l-239 63c-1,0 -1,0 -2,0zm-211 -70l211 56 212 -56 -212 -57 -211 57z"/>
    </g>
    <g>
     <path class="fil0" d="M246 371c-47,0 -90,-9 -113,-24 -21,-13 -24,-28 -23,-39l8 -78c0,-3 4,-6 8,-6 4,1 6,4 6,8l-8 78c-1,9 4,18 16,25 22,14 61,22 105,22 45,0 84,-8 106,-22 12,-7 17,-16 16,-25l-8 -78c0,-4 2,-7 6,-8 4,0 7,3 8,6l8 78c1,11 -2,26 -23,39 -23,15 -65,24 -112,24z"/>
    </g>
    <g>
     <path class="fil0" d="M484 278c-4,0 -7,-3 -7,-7l0 -71c0,-4 3,-7 7,-7 4,0 7,3 7,7l0 71c0,4 -3,7 -7,7z"/>
    </g>
    <g>
     <path class="fil0" d="M484 312c-14,0 -24,-10 -24,-24 0,-13 11,-24 24,-24 13,0 24,11 24,24 0,14 -10,24 -24,24zm0 -34c-6,0 -10,5 -10,10 0,6 4,10 10,10 5,0 10,-4 10,-10 0,-5 -5,-10 -10,-10z"/>
    </g>
    <g>
     <path class="fil0" d="M505 383l-42 0c-4,0 -7,-3 -7,-6 -2,-33 8,-65 11,-77 1,-4 5,-6 9,-5 4,2 6,6 5,9 -4,11 -12,37 -11,65l28 0c1,-28 -8,-54 -11,-65 -1,-4 1,-7 5,-9 3,-1 7,1 8,5 4,12 14,44 12,77 0,3 -3,6 -7,6z"/>
    </g>
    <g>
     <path class="fil0" d="M245 222c-24,0 -49,-8 -49,-22 0,-16 26,-22 49,-22 24,0 50,6 50,22 0,15 -26,22 -50,22zm-35 -22c3,3 15,8 35,8 21,0 33,-5 36,-8 -2,-3 -14,-8 -36,-8 -21,0 -33,5 -35,8zm71 0l0 0 0 0z"/>
    </g>
   </g>
  </g>
 </g>
</svg>
