<?xml version="1.0" encoding="UTF-8"?>
<!DOCTYPE svg PUBLIC "-//W3C//DTD SVG 1.1//EN" "http://www.w3.org/Graphics/SVG/1.1/DTD/svg11.dtd">
<!-- Creator: CorelDRAW -->
<svg xmlns="http://www.w3.org/2000/svg" xml:space="preserve" width="1.70666in" height="1.70666in" version="1.1" style="shape-rendering:geometricPrecision; text-rendering:geometricPrecision; image-rendering:optimizeQuality; fill-rule:evenodd; clip-rule:evenodd"
viewBox="0 0 1707 1707"
 xmlns:xlink="http://www.w3.org/1999/xlink">
 <defs>
  <style type="text/css">
   <![CDATA[
    .fil0 {fill:black}
   ]]>
  </style>
 </defs>
 <g id="Layer_x0020_1">
  <metadata id="CorelCorpID_0Corel-Layer"/>
  <path class="fil0" d="M574 569c-78,0 -117,-95 -62,-149l260 -261c34,-34 89,-34 124,0 29,30 33,75 12,109l397 397c34,-22 79,-17 108,12 34,34 34,90 0,124l-260 260c-34,34 -89,34 -124,0 -29,-29 -33,-75 -12,-108l-60 -61 -62 61c-8,9 -23,9 -32,0l-40 -40 -654 653c-9,9 -23,9 -32,0l-130 -130c-9,-9 -9,-24 0,-33l653 -653c-66,-67 -67,-47 21,-134l-61 -60c-14,8 -30,13 -46,13zm1110 941l-596 0c-13,0 -23,-11 -23,-23l0 -214c0,-27 30,-23 45,-23l0 -84c0,-12 11,-23 23,-23l506 0c12,0 22,11 22,23l0 84c16,0 46,-4 46,23l0 214c0,12 -11,23 -23,23zm-528 -260l460 0 0 -61 -460 0 0 61zm-45 214l550 0 0 -168 -550 0 0 168zm-186 -604l-212 -212 -45 45 211 212 46 -45zm-271 -335l394 394 223 -223 -394 -394 -223 223zm697 172c-11,0 -21,4 -29,12l-260 260c-40,40 21,98 59,60l260 -260c26,-26 8,-72 -30,-72zm-1296 723l98 98 638 -637 -99 -99 -637 638zm779 -1241c-12,0 -22,5 -30,13l-260 260c-39,38 19,100 62,57l257 -258c27,-26 8,-72 -29,-72z"/>
 </g>
</svg>
