<?xml version="1.0" encoding="utf-8"?>
<!-- Generator: Adobe Illustrator 23.0.3, SVG Export Plug-In . SVG Version: 6.00 Build 0)  -->
<svg version="1.1" id="Layer_1" xmlns="http://www.w3.org/2000/svg" xmlns:xlink="http://www.w3.org/1999/xlink" x="0px" y="0px"
	 viewBox="0 0 50 50" style="enable-background:new 0 0 50 50;" xml:space="preserve">
<style type="text/css">
	.st0{fill:#2980B9;}
	.st1{fill:#037CC6;}
	.st2{fill:#9B59B6;}
	.st3{fill:#27AE60;}
	.st4{fill:#E74C3C;}
	.st5{fill:#34495E;}
	.st6{fill:#D35400;}
	.st7{fill:#E22D2D;}
	.st8{fill:#1ABC9C;}
	.st9{fill:#F39C12;}
	.st10{fill:#E67E22;}
	.st11{fill:url(#SVGID_1_);}
	.st12{fill:url(#SVGID_2_);}
	.st13{fill:url(#SVGID_3_);}
	.st14{fill:url(#SVGID_4_);}
	.st15{fill:url(#SVGID_5_);}
	.st16{fill:url(#SVGID_6_);}
	.st17{fill:url(#SVGID_7_);}
	.st18{fill:url(#SVGID_8_);}
	.st19{fill:url(#SVGID_9_);}
	.st20{fill:url(#SVGID_10_);}
	.st21{fill:url(#SVGID_11_);}
	.st22{fill:url(#SVGID_12_);}
	.st23{fill:url(#SVGID_13_);}
	.st24{fill:url(#SVGID_14_);}
	.st25{fill:url(#SVGID_15_);}
	.st26{fill:url(#SVGID_16_);}
	.st27{fill:url(#SVGID_17_);}
	.st28{fill:url(#SVGID_18_);}
	.st29{fill:url(#SVGID_19_);}
	.st30{fill:url(#SVGID_20_);}
	.st31{fill:url(#SVGID_21_);}
	.st32{fill:url(#SVGID_22_);}
	.st33{fill:url(#SVGID_23_);}
	.st34{fill:url(#SVGID_24_);}
	.st35{fill:url(#SVGID_25_);}
	.st36{fill:url(#SVGID_26_);}
	.st37{fill:url(#SVGID_27_);}
	.st38{fill:url(#SVGID_28_);}
	.st39{fill:url(#SVGID_29_);}
	.st40{fill:url(#SVGID_30_);}
	.st41{fill:url(#SVGID_31_);}
	.st42{fill:url(#SVGID_32_);}
	.st43{fill:#0C0C0C;}
	.st44{fill:none;stroke:#0C0C0C;stroke-width:2;stroke-linecap:round;stroke-linejoin:round;stroke-miterlimit:10;}
	.st45{fill:#FFFFFF;stroke:#0C0C0C;stroke-width:2;stroke-linecap:round;stroke-linejoin:round;stroke-miterlimit:10;}
	.st46{fill:#FB0101;}
	.st47{fill:url(#SVGID_33_);}
	.st48{fill:url(#SVGID_34_);}
	.st49{fill:#403D3D;}
	.st50{fill:#926DDE;}
	.st51{fill:#33CABB;}
</style>
<g>
	<g>
		<g>
			<path class="st43" d="M25,44.7c-0.2,0-0.3,0-0.5-0.1l-8.6-4.9c-0.5-0.3-0.6-0.9-0.4-1.4s0.9-0.6,1.4-0.4l8.1,4.7l7.3-4.2
				c0.5-0.3,1.1-0.1,1.4,0.4c0.3,0.5,0.1,1.1-0.4,1.4l-7.8,4.5C25.3,44.7,25.2,44.7,25,44.7z"/>
		</g>
		<g>
			<path class="st43" d="M11.2,30.8c-0.6,0-1-0.4-1-1v-9.9c0-0.4,0.2-0.7,0.5-0.9l8.5-4.9c0.5-0.3,1.1-0.1,1.4,0.4
				c0.3,0.5,0.1,1.1-0.4,1.4l-8,4.6v9.3C12.2,30.3,11.8,30.8,11.2,30.8z"/>
		</g>
		<g>
			<path class="st43" d="M38.8,30.3c-0.6,0-1-0.4-1-1v-8.8l-8-4.6c-0.5-0.3-0.6-0.9-0.4-1.4c0.3-0.5,0.9-0.6,1.4-0.4l8.5,4.9
				c0.3,0.2,0.5,0.5,0.5,0.9v9.4C39.8,29.8,39.3,30.3,38.8,30.3z"/>
		</g>
		<g>
			<path class="st43" d="M25,19.1c-3.9,0-7-3.1-7-7c0-3.9,3.1-7,7-7c3.9,0,7,3.1,7,7C32,16,28.8,19.1,25,19.1z M25,7.1
				c-2.8,0-5,2.2-5,5s2.2,5,5,5s5-2.2,5-5S27.7,7.1,25,7.1z"/>
			<path class="st43" d="M11.2,42.8c-3.9,0-7-3.1-7-7c0-3.9,3.1-7,7-7s7,3.1,7,7C18.2,39.6,15.1,42.8,11.2,42.8z M11.2,30.8
				c-2.8,0-5,2.2-5,5s2.2,5,5,5s5-2.2,5-5S14,30.8,11.2,30.8z"/>
			<path class="st43" d="M38.8,42.8c-3.9,0-7-3.1-7-7c0-3.9,3.1-7,7-7c3.9,0,7,3.1,7,7C45.8,39.6,42.6,42.8,38.8,42.8z M38.8,30.8
				c-2.8,0-5,2.2-5,5s2.2,5,5,5s5-2.2,5-5S41.5,30.8,38.8,30.8z"/>
		</g>
	</g>
</g>
</svg>
