<?xml version="1.0" encoding="UTF-8"?>
<!DOCTYPE svg PUBLIC "-//W3C//DTD SVG 1.1//EN" "http://www.w3.org/Graphics/SVG/1.1/DTD/svg11.dtd">
<!-- Creator: CorelDRAW -->
<svg xmlns="http://www.w3.org/2000/svg" xml:space="preserve" width="512px" height="512px" version="1.1" style="shape-rendering:geometricPrecision; text-rendering:geometricPrecision; image-rendering:optimizeQuality; fill-rule:evenodd; clip-rule:evenodd"
viewBox="0 0 512 512"
 xmlns:xlink="http://www.w3.org/1999/xlink">
 <defs>
  <style type="text/css">
   <![CDATA[
    .fil0 {fill:black}
   ]]>
  </style>
 </defs>
 <g id="Layer_x0020_1">
  <metadata id="CorelCorpID_0Corel-Layer"/>
  <g id="_571555416">
   <g>
    <g>
     <g>
      <path class="fil0" d="M259 106c-3,0 -6,-2 -7,-5 0,-2 -2,-5 -3,-8 -3,-8 -6,-17 -7,-24 -1,-9 -3,-11 -3,-11 -2,-1 -9,2 -13,4 -5,2 -11,5 -18,6 -1,0 -2,0 -3,1 -8,2 -18,4 -28,1 0,0 -1,-1 -1,-1 -2,-1 -3,-1 -3,-1 -3,2 -4,15 -4,23 -1,3 -1,6 -1,9 0,2 -2,5 -5,5 -2,1 -5,1 -7,-1 -12,-12 -16,-48 -5,-74 8,-19 23,-30 42,-30l16 0c11,0 29,3 35,12 9,-1 15,2 18,5 17,16 12,62 7,78 -1,3 -3,10 -9,11 0,0 -1,0 -1,0zm-21 -62c3,0 6,1 8,2 8,4 9,14 10,21 0,3 1,7 3,11 0,-4 1,-9 1,-15 1,-16 -1,-29 -6,-35 -1,-1 -4,-4 -11,-1 -2,1 -5,1 -7,0 -2,-2 -3,-4 -3,-6 0,-3 -11,-7 -24,-7l-16 0c-14,0 -23,7 -29,21 -4,9 -5,20 -5,30 1,-4 3,-7 7,-9 4,-3 10,-3 16,0 6,2 13,0 20,-1 1,-1 3,-1 4,-1 0,0 0,0 0,0 5,-1 10,-3 15,-5 6,-3 12,-5 17,-5zm9 -23l0 0 0 0z"/>
     </g>
     <g>
      <path class="fil0" d="M210 175c-27,0 -45,-29 -53,-55 -4,-3 -7,-7 -7,-11 -1,-5 1,-10 6,-15 3,-3 7,-3 10,0 3,3 3,7 0,10 -2,2 -2,3 -2,3 0,0 1,1 2,2 2,1 3,2 4,4 5,18 19,48 40,48 21,0 35,-30 40,-48 1,-2 2,-3 4,-4 1,-1 2,-2 2,-2 0,-1 0,-2 -2,-3 -3,-3 -3,-7 0,-10 3,-3 7,-3 10,0 5,5 7,10 6,15 0,4 -3,8 -7,11 -8,26 -26,55 -53,55z"/>
     </g>
    </g>
    <g>
     <path class="fil0" d="M398 325l-378 0c-4,0 -7,-3 -7,-7l0 -50c0,-4 3,-7 7,-7l378 0c4,0 7,3 7,7l0 50c0,4 -3,7 -7,7zm-371 -14l365 0 0 -36 -365 0 0 36z"/>
    </g>
    <g>
     <path class="fil0" d="M379 512l-339 0c-4,0 -7,-3 -7,-7l0 -187c0,-4 3,-7 7,-7 4,0 7,3 7,7l0 180 325 0 0 -180c0,-4 3,-7 7,-7 4,0 7,3 7,7l0 187c0,4 -3,7 -7,7z"/>
    </g>
    <g>
     <path class="fil0" d="M355 488l-291 0c-4,0 -7,-3 -7,-7l0 -163c0,-4 3,-7 7,-7 4,0 7,3 7,7l0 156 277 0 0 -156c0,-4 3,-7 7,-7 4,0 7,3 7,7l0 163c0,4 -3,7 -7,7z"/>
    </g>
    <g>
     <path class="fil0" d="M72 275c-4,0 -7,-3 -7,-7l0 -81c0,-3 1,-5 4,-6l20 -11c3,-2 7,-1 9,3 2,3 1,7 -3,9l-16 9 0 77c0,4 -3,7 -7,7z"/>
    </g>
    <g>
     <path class="fil0" d="M104 189c-12,0 -22,-10 -22,-22 0,-12 10,-21 22,-21 12,0 21,9 21,21 0,13 -9,22 -21,22zm0 -29c-4,0 -8,3 -8,7 0,5 4,8 8,8 4,0 7,-3 7,-8 0,-4 -3,-7 -7,-7z"/>
    </g>
    <g>
     <path class="fil0" d="M247 465c-1,0 -2,0 -3,-1l-35 -19 -34 19c-2,1 -5,1 -7,0 -2,-2 -3,-5 -3,-7l7 -40 -29 -26c-2,-2 -3,-5 -2,-7 1,-3 3,-5 6,-5l39 -5 17 -35c1,-2 3,-4 6,-4 0,0 0,0 0,0 3,0 5,1 6,4l18 35 39 5c3,0 5,2 6,5 1,2 0,5 -2,7l-29 27 7 39c0,2 -1,5 -3,7 -1,1 -3,1 -4,1zm-38 -35c1,0 2,0 3,1l25 14 -5 -29c0,-2 1,-5 2,-6l21 -19 -28 -3c-2,0 -4,-2 -5,-4l-13 -26 -12 26c-1,2 -3,4 -5,4l-28 3 21 19c2,1 2,4 2,6l-5 29 24 -14c1,-1 2,-1 3,-1zm-18 -49l0 0 0 0z"/>
    </g>
    <g>
     <path class="fil0" d="M292 275c-4,0 -7,-3 -7,-7l0 -43c0,-20 -16,-37 -35,-37l-13 0c-3,0 -6,-2 -7,-5l-6 -21c-1,-4 1,-8 5,-9 4,-1 8,1 9,5l4 16 8 0c13,0 25,5 35,15 9,10 14,22 14,36l0 43c0,4 -3,7 -7,7zm-165 0c-4,0 -7,-3 -7,-7l0 -43c0,-13 5,-26 14,-36 10,-10 22,-15 35,-15l8 0 4 -17c1,-3 5,-6 9,-5 4,1 6,5 5,9l-6 22c-1,3 -4,5 -7,5l-13 0c-19,0 -35,17 -35,37l0 43c0,4 -3,7 -7,7z"/>
    </g>
    <g>
     <path class="fil0" d="M161 275c-4,0 -7,-3 -7,-7l0 -86c0,-4 3,-7 7,-7 4,0 7,3 7,7l0 86c0,4 -3,7 -7,7z"/>
    </g>
    <g>
     <path class="fil0" d="M258 275c-4,0 -7,-3 -7,-7l0 -86c0,-4 3,-7 7,-7 4,0 7,3 7,7l0 86c0,4 -3,7 -7,7z"/>
    </g>
    <g>
     <path class="fil0" d="M209 216c0,0 0,0 0,0 -2,0 -4,-1 -5,-2l-27 -28c-3,-3 -3,-7 0,-10 3,-3 7,-3 10,0l22 23 23 -23c3,-3 7,-3 10,0 3,3 3,7 0,10l-28 28c-1,1 -3,2 -5,2z"/>
    </g>
    <g>
     <path class="fil0" d="M209 259c0,0 0,0 0,0 -2,0 -4,-1 -5,-2l-14 -16c-2,-2 -2,-4 -2,-7l8 -33c1,-4 5,-6 9,-5 2,1 3,2 4,3 1,-1 2,-2 4,-3 4,-1 8,1 9,5l9 33c1,2 0,5 -2,7l-15 16c-1,1 -3,2 -5,2zm-6 -25l6 8 7 -8 -7 -26 -6 26z"/>
    </g>
    <g>
     <path class="fil0" d="M328 200c-2,0 -4,-1 -5,-2 -2,-3 -3,-6 -1,-9l39 -58c-8,-10 -12,-22 -12,-35 0,-17 8,-32 22,-44 14,-11 33,-17 53,-17 41,0 75,27 75,61 0,17 -8,32 -23,44 -14,12 -33,18 -52,18 -7,0 -13,-1 -19,-2l-73 43c-2,1 -3,1 -4,1zm96 -151c-17,0 -32,5 -44,14 -11,9 -17,21 -17,33 0,11 4,21 12,29 2,3 3,6 1,9l-25 37 49 -29c2,-1 4,-1 6,-1 5,2 11,3 18,3 33,0 61,-22 61,-48 0,-12 -6,-24 -17,-33 -12,-9 -28,-14 -44,-14z"/>
    </g>
    <g>
     <g>
      <path class="fil0" d="M397 103l-11 0c-4,0 -7,-3 -7,-7 0,-4 3,-7 7,-7l11 0c4,0 7,3 7,7 0,4 -3,7 -7,7z"/>
     </g>
     <g>
      <path class="fil0" d="M429 103l-11 0c-4,0 -7,-3 -7,-7 0,-4 3,-7 7,-7l11 0c4,0 7,3 7,7 0,4 -3,7 -7,7z"/>
     </g>
     <g>
      <path class="fil0" d="M462 103l-11 0c-4,0 -7,-3 -7,-7 0,-4 3,-7 7,-7l11 0c4,0 7,3 7,7 0,4 -3,7 -7,7z"/>
     </g>
    </g>
   </g>
  </g>
 </g>
</svg>
